
<svg version="1.1" id="Layer_1" xmlns="http://www.w3.org/2000/svg" xmlns:xlink="http://www.w3.org/1999/xlink" x="0px" y="0px"
	 viewBox="0 0 208.763 45.783" style="enable-background:new 0 0 208.763 45.783;" xml:space="preserve">
<path d="M62.837,44.482l0.858-6.015c0.042-0.27,0.121-0.475,0.241-0.613c0.119-0.138,0.278-0.208,0.476-0.208
	c0.169,0,0.315,0.058,0.438,0.172c0.122,0.114,0.217,0.282,0.283,0.502l1.508,4.809l1.495-4.809c0.069-0.22,0.166-0.388,0.288-0.502
	c0.122-0.114,0.269-0.172,0.438-0.172c0.198,0,0.357,0.069,0.476,0.208c0.121,0.138,0.199,0.343,0.241,0.613l0.858,6.015H69.58
	l-0.774-5.563l-1.547,4.955c-0.075,0.24-0.161,0.412-0.259,0.521c-0.097,0.108-0.217,0.162-0.359,0.162
	c-0.146,0-0.269-0.051-0.365-0.156c-0.095-0.103-0.182-0.28-0.261-0.528l-1.546-4.955l-0.764,5.563H62.837z"/>
<path d="M71.873,41.092c0,0.364,0.064,0.706,0.192,1.025c0.127,0.319,0.312,0.605,0.554,0.859c0.238,0.25,0.51,0.439,0.816,0.571
	c0.304,0.132,0.623,0.198,0.953,0.198c0.333,0,0.65-0.066,0.949-0.198c0.301-0.132,0.568-0.322,0.805-0.571
	c0.241-0.257,0.427-0.545,0.554-0.867c0.127-0.32,0.191-0.66,0.191-1.017c0-0.356-0.063-0.692-0.188-1.009
	c-0.125-0.319-0.312-0.605-0.557-0.864c-0.237-0.251-0.504-0.443-0.805-0.575c-0.299-0.132-0.616-0.198-0.949-0.198
	c-0.333,0-0.652,0.066-0.957,0.196c-0.304,0.13-0.575,0.319-0.811,0.568c-0.245,0.257-0.431,0.545-0.557,0.864
	C71.935,40.394,71.873,40.734,71.873,41.092 M70.959,41.101c0-0.472,0.085-0.917,0.257-1.336c0.171-0.42,0.423-0.798,0.756-1.135
	c0.323-0.33,0.692-0.581,1.105-0.755c0.414-0.172,0.85-0.259,1.308-0.259c0.452,0,0.887,0.088,1.302,0.264
	c0.414,0.175,0.785,0.43,1.112,0.76c0.327,0.333,0.576,0.71,0.747,1.128c0.172,0.42,0.257,0.864,0.257,1.333
	c0,0.471-0.087,0.919-0.259,1.342c-0.174,0.422-0.422,0.798-0.745,1.128c-0.327,0.333-0.698,0.589-1.112,0.764
	c-0.415,0.175-0.85,0.264-1.302,0.264c-0.459,0-0.895-0.087-1.308-0.262c-0.414-0.174-0.782-0.425-1.105-0.752
	c-0.333-0.34-0.586-0.719-0.756-1.141C71.044,42.023,70.959,41.575,70.959,41.101z"/>
<path d="M78.664,44.482v-4.329c0-0.789,0.196-1.408,0.587-1.86c0.391-0.451,0.929-0.676,1.614-0.676
	c0.607,0,1.114,0.183,1.521,0.549c0.407,0.367,0.61,0.818,0.61,1.352c0,0.32-0.077,0.607-0.23,0.858
	c-0.154,0.251-0.38,0.459-0.674,0.623c0.349,0.093,0.603,0.272,0.764,0.534c0.159,0.262,0.24,0.634,0.24,1.115v1.835h-0.892v-1.495
	c0-0.565-0.092-0.951-0.275-1.155c-0.183-0.204-0.517-0.306-0.998-0.306h-1.022v-0.821h0.792c0.436,0,0.776-0.1,1.019-0.298
	c0.241-0.198,0.362-0.473,0.362-0.829c0-0.333-0.114-0.605-0.341-0.816c-0.229-0.211-0.523-0.316-0.885-0.316
	c-0.399,0-0.716,0.135-0.951,0.406c-0.236,0.27-0.354,0.636-0.354,1.098v4.532H78.664z"/>
<path d="M88.017,38.532c-0.037-0.003-0.077-0.006-0.117-0.008c-0.042-0.002-0.102-0.002-0.18-0.002
	c-0.835,0-1.497,0.174-1.984,0.521c-0.488,0.348-0.801,0.866-0.943,1.558h3.225v0.801h-3.272c0.113,0.748,0.417,1.313,0.909,1.695
	c0.494,0.382,1.17,0.573,2.028,0.573c0.092,0,0.161,0,0.208-0.002c0.047-0.002,0.09-0.005,0.127-0.008v0.821h-0.259
	c-0.5,0-0.94-0.039-1.32-0.118c-0.381-0.079-0.7-0.196-0.958-0.354c-0.541-0.33-0.953-0.742-1.234-1.237
	c-0.283-0.496-0.425-1.052-0.425-1.671c0-0.616,0.142-1.171,0.425-1.665c0.282-0.493,0.694-0.903,1.234-1.23
	c0.258-0.158,0.576-0.275,0.958-0.356c0.38-0.081,0.819-0.121,1.32-0.121h0.259V38.532z"/>
<path d="M91.371,44.482v-0.896h2.306c0.367,0,0.647-0.072,0.837-0.217c0.19-0.145,0.285-0.356,0.285-0.636
	c0-0.217-0.072-0.406-0.219-0.568c-0.146-0.163-0.42-0.344-0.822-0.549l-1.133-0.579c-0.414-0.211-0.723-0.454-0.924-0.729
	c-0.201-0.275-0.301-0.589-0.301-0.94c0-0.507,0.183-0.906,0.552-1.199c0.367-0.291,0.872-0.438,1.513-0.438h1.952v0.891h-2.25
	c-0.257,0-0.462,0.066-0.615,0.196c-0.153,0.13-0.229,0.301-0.229,0.515c0,0.195,0.068,0.364,0.201,0.507
	c0.133,0.143,0.452,0.344,0.959,0.605l0.985,0.5c0.43,0.22,0.748,0.472,0.954,0.755c0.206,0.282,0.309,0.61,0.309,0.985
	c0,0.568-0.195,1.011-0.583,1.324c-0.388,0.314-0.937,0.472-1.648,0.472H91.371z"/>
<polygon points="97.98,44.482 97.98,38.566 96.255,38.566 96.255,37.731 100.606,37.731 100.606,38.566 98.881,38.566
	98.881,44.482 "/>
<path d="M102.945,44.482v-2.588c-0.557-0.142-0.977-0.407-1.259-0.797c-0.283-0.39-0.425-0.9-0.425-1.527v-1.839h0.901v1.849
	c0,0.493,0.105,0.872,0.316,1.136c0.211,0.264,0.513,0.396,0.911,0.396c0.396,0,0.698-0.132,0.909-0.396
	c0.211-0.264,0.315-0.644,0.315-1.136v-1.849h0.901v1.839c0,0.628-0.142,1.138-0.425,1.527c-0.282,0.389-0.702,0.655-1.259,0.797
	v2.588H102.945z"/>
<path d="M106.556,37.731h0.896v4.54c0,0.443,0.116,0.784,0.349,1.022c0.232,0.24,0.563,0.359,0.995,0.359h1.226v0.83h-1.07
	c-0.805,0-1.406-0.195-1.802-0.584c-0.396-0.391-0.594-0.982-0.594-1.773V37.731z"/>
<path d="M114.517,38.532c-0.037-0.003-0.077-0.006-0.117-0.008c-0.042-0.002-0.102-0.002-0.18-0.002
	c-0.835,0-1.497,0.174-1.984,0.521c-0.488,0.348-0.801,0.866-0.943,1.558h3.225v0.801h-3.272c0.113,0.748,0.417,1.313,0.909,1.695
	c0.494,0.382,1.17,0.573,2.028,0.573c0.092,0,0.161,0,0.208-0.002c0.047-0.002,0.09-0.005,0.127-0.008v0.821h-0.259
	c-0.5,0-0.94-0.039-1.32-0.118c-0.381-0.079-0.7-0.196-0.957-0.354c-0.541-0.33-0.953-0.742-1.234-1.237
	c-0.283-0.496-0.425-1.052-0.425-1.671c0-0.616,0.142-1.171,0.425-1.665c0.282-0.493,0.694-0.903,1.234-1.23
	c0.258-0.158,0.576-0.275,0.957-0.356c0.38-0.081,0.819-0.121,1.32-0.121h0.259V38.532z"/>
<path d="M121.878,44.482v-3.098h-2.625v-0.853h2.625v-0.269c0-0.587-0.125-1.038-0.375-1.349c-0.249-0.311-0.608-0.467-1.077-0.467
	s-0.825,0.156-1.075,0.467c-0.248,0.311-0.372,0.761-0.372,1.349v4.22h-0.896v-4.239c0-0.805,0.213-1.444,0.639-1.917
	c0.427-0.473,0.995-0.71,1.704-0.71c0.71,0,1.279,0.237,1.707,0.71c0.426,0.473,0.64,1.112,0.64,1.917v4.239H121.878z"/>
<path d="M127.673,38.532c-0.04-0.003-0.084-0.006-0.127-0.008c-0.043-0.002-0.109-0.002-0.198-0.002
	c-0.914,0-1.637,0.232-2.164,0.695c-0.528,0.463-0.792,1.091-0.792,1.883c0,0.793,0.264,1.421,0.792,1.884
	c0.528,0.463,1.25,0.695,2.164,0.695c0.089,0,0.155,0,0.2-0.002c0.047-0.002,0.088-0.005,0.125-0.008v0.811h-0.259
	c-0.5,0-0.94-0.039-1.32-0.118c-0.381-0.079-0.7-0.196-0.957-0.354c-0.541-0.33-0.953-0.742-1.234-1.237
	c-0.283-0.496-0.425-1.052-0.425-1.671c0-0.616,0.142-1.171,0.425-1.665c0.282-0.493,0.694-0.903,1.234-1.23
	c0.258-0.158,0.576-0.275,0.957-0.356c0.38-0.081,0.819-0.121,1.32-0.121h0.259V38.532z"/>
<path d="M131.431,45.783v-3.523h0.872v1.4c0.578-0.158,1.039-0.468,1.384-0.937c0.344-0.467,0.517-1.011,0.517-1.633
	c0-0.354-0.063-0.692-0.188-1.012c-0.125-0.322-0.309-0.607-0.547-0.859c-0.233-0.248-0.502-0.439-0.806-0.573
	c-0.306-0.134-0.624-0.2-0.957-0.2c-0.336,0-0.656,0.066-0.959,0.2c-0.304,0.134-0.573,0.325-0.81,0.573
	c-0.245,0.259-0.431,0.545-0.557,0.864c-0.126,0.317-0.188,0.653-0.188,1.008c0,0.613,0.171,1.155,0.512,1.627
	c0.341,0.472,0.792,0.785,1.352,0.943v0.867c-0.846-0.195-1.521-0.603-2.023-1.226c-0.504-0.621-0.755-1.355-0.755-2.201
	c0-0.468,0.085-0.912,0.254-1.333c0.171-0.418,0.42-0.795,0.75-1.128c0.323-0.33,0.694-0.584,1.11-0.76
	c0.417-0.175,0.855-0.264,1.313-0.264c0.452,0,0.887,0.088,1.302,0.264c0.414,0.175,0.785,0.43,1.112,0.76
	c0.323,0.336,0.571,0.714,0.745,1.133c0.172,0.42,0.259,0.863,0.259,1.328c0,0.85-0.256,1.587-0.769,2.211
	c-0.512,0.626-1.196,1.035-2.05,1.226v1.246H131.431z"/>
<path d="M136.878,37.731v4.2c0,0.587,0.124,1.038,0.372,1.349c0.249,0.311,0.607,0.467,1.075,0.467c0.468,0,0.827-0.156,1.077-0.467
	c0.25-0.311,0.375-0.761,0.375-1.349v-4.2h0.897v4.244c0,0.8-0.214,1.439-0.641,1.913c-0.428,0.475-0.998,0.711-1.707,0.711
	c-0.71,0-1.278-0.237-1.704-0.711c-0.426-0.475-0.639-1.114-0.639-1.913v-4.244H136.878z"/>
<rect x="141.87" y="37.731" width="0.901" height="6.751"/>
<path d="M143.968,44.482v-4.329c0-0.789,0.196-1.408,0.587-1.86c0.391-0.451,0.929-0.676,1.614-0.676
	c0.607,0,1.114,0.183,1.521,0.549c0.407,0.367,0.61,0.818,0.61,1.352c0,0.32-0.077,0.607-0.23,0.858
	c-0.154,0.251-0.38,0.459-0.674,0.623c0.349,0.093,0.603,0.272,0.764,0.534c0.159,0.262,0.24,0.634,0.24,1.115v1.835h-0.892v-1.495
	c0-0.565-0.092-0.951-0.275-1.155c-0.183-0.204-0.517-0.306-0.998-0.306h-1.022v-0.821h0.792c0.436,0,0.776-0.1,1.019-0.298
	c0.241-0.198,0.362-0.473,0.362-0.829c0-0.333-0.114-0.605-0.341-0.816c-0.229-0.211-0.523-0.316-0.885-0.316
	c-0.399,0-0.716,0.135-0.951,0.406c-0.236,0.27-0.354,0.636-0.354,1.098v4.532H143.968z"/>
<path d="M153.321,38.532c-0.037-0.003-0.077-0.006-0.117-0.008c-0.042-0.002-0.102-0.002-0.18-0.002
	c-0.835,0-1.497,0.174-1.984,0.521c-0.488,0.348-0.801,0.866-0.943,1.558h3.225v0.801h-3.272c0.113,0.748,0.417,1.313,0.909,1.695
	c0.494,0.382,1.17,0.573,2.028,0.573c0.092,0,0.161,0,0.208-0.002c0.047-0.002,0.09-0.005,0.127-0.008v0.821h-0.259
	c-0.5,0-0.94-0.039-1.32-0.118c-0.381-0.079-0.7-0.196-0.957-0.354c-0.541-0.33-0.953-0.742-1.234-1.237
	c-0.283-0.496-0.425-1.052-0.425-1.671c0-0.616,0.142-1.171,0.425-1.665c0.282-0.493,0.694-0.903,1.234-1.23
	c0.258-0.158,0.576-0.275,0.957-0.356c0.38-0.081,0.819-0.121,1.32-0.121h0.259V38.532z"/>
<path d="M155.525,43.661c0.026,0,0.063,0.002,0.113,0.005c0.051,0.003,0.087,0.005,0.109,0.005c0.838,0,1.513-0.237,2.021-0.71
	c0.507-0.473,0.761-1.096,0.761-1.87c0-0.789-0.259-1.415-0.777-1.88c-0.52-0.465-1.222-0.699-2.108-0.699
	c-0.048,0-0.101,0.002-0.161,0.005c-0.06,0.003-0.148,0.008-0.264,0.015l-0.005,5.949h-0.887v-6.751h1.16
	c0.518,0,0.964,0.039,1.336,0.117c0.373,0.079,0.694,0.198,0.961,0.359c0.544,0.327,0.956,0.737,1.239,1.23
	c0.283,0.494,0.425,1.049,0.425,1.665c0,0.615-0.148,1.177-0.446,1.682c-0.298,0.507-0.719,0.922-1.266,1.246
	c-0.251,0.148-0.557,0.259-0.919,0.336c-0.362,0.077-0.768,0.116-1.216,0.116h-0.076V43.661z"/>
<path d="M162.932,44.482v-4.287c0-0.808,0.193-1.439,0.578-1.894c0.385-0.455,0.917-0.684,1.596-0.684
	c0.597,0,1.098,0.18,1.503,0.542c0.405,0.361,0.608,0.801,0.608,1.32c0,0.286-0.064,0.544-0.192,0.776
	c-0.127,0.232-0.319,0.433-0.573,0.605c0.343,0.148,0.61,0.367,0.8,0.656c0.19,0.288,0.285,0.618,0.285,0.985
	c0,0.589-0.208,1.065-0.624,1.432c-0.417,0.365-0.966,0.549-1.648,0.549h-1.107v-0.848h1.117c0.409,0,0.729-0.103,0.964-0.309
	c0.233-0.206,0.351-0.486,0.351-0.842c0-0.343-0.117-0.616-0.354-0.819c-0.235-0.203-0.555-0.304-0.961-0.304h-1.117v-0.811h0.792
	c0.417,0,0.748-0.092,0.994-0.275c0.245-0.185,0.367-0.433,0.367-0.748c0-0.317-0.109-0.578-0.33-0.782
	c-0.221-0.204-0.502-0.306-0.848-0.306c-0.412,0-0.734,0.134-0.966,0.401c-0.233,0.267-0.349,0.637-0.349,1.112v4.532H162.932z"/>
<path d="M169.831,44.482v-2.588c-0.557-0.142-0.977-0.407-1.258-0.797c-0.283-0.39-0.425-0.9-0.425-1.527v-1.839h0.901v1.849
	c0,0.493,0.105,0.872,0.316,1.136c0.211,0.264,0.513,0.396,0.911,0.396c0.396,0,0.698-0.132,0.909-0.396
	c0.211-0.264,0.315-0.644,0.315-1.136v-1.849h0.901v1.839c0,0.628-0.142,1.138-0.425,1.527c-0.282,0.389-0.702,0.655-1.258,0.797
	v2.588H169.831z"/>
<path d="M175.729,44.482l0.858-6.015c0.042-0.27,0.121-0.475,0.241-0.613c0.119-0.138,0.278-0.208,0.476-0.208
	c0.169,0,0.315,0.058,0.438,0.172c0.122,0.114,0.217,0.282,0.283,0.502l1.508,4.809l1.495-4.809c0.069-0.22,0.166-0.388,0.288-0.502
	c0.122-0.114,0.269-0.172,0.438-0.172c0.198,0,0.357,0.069,0.476,0.208c0.121,0.138,0.199,0.343,0.241,0.613l0.858,6.015h-0.858
	l-0.774-5.563l-1.547,4.955c-0.076,0.24-0.161,0.412-0.259,0.521c-0.097,0.108-0.217,0.162-0.359,0.162
	c-0.146,0-0.269-0.051-0.365-0.156c-0.095-0.103-0.182-0.28-0.261-0.528l-1.546-4.955l-0.764,5.563H175.729z"/>
<rect x="184.186" y="37.731" width="0.901" height="6.751"/>
<path d="M186.284,37.731h0.896v4.54c0,0.443,0.116,0.784,0.349,1.022c0.232,0.24,0.563,0.359,0.995,0.359h1.226v0.83h-1.07
	c-0.805,0-1.406-0.195-1.802-0.584c-0.396-0.391-0.594-0.982-0.594-1.773V37.731z"/>
<path d="M194.076,44.482v-3.098h-2.625v-0.853h2.625v-0.269c0-0.587-0.125-1.038-0.375-1.349c-0.249-0.311-0.608-0.467-1.077-0.467
	c-0.468,0-0.825,0.156-1.075,0.467c-0.248,0.311-0.372,0.761-0.372,1.349v4.22h-0.897v-4.239c0-0.805,0.213-1.444,0.639-1.917
	c0.427-0.473,0.995-0.71,1.704-0.71c0.71,0,1.279,0.237,1.707,0.71c0.426,0.473,0.641,1.112,0.641,1.917v4.239H194.076z"/>
<path d="M196.991,44.482h-0.848V38.64c0-0.317,0.064-0.56,0.192-0.731c0.127-0.169,0.307-0.254,0.544-0.254
	c0.166,0,0.317,0.055,0.451,0.166c0.134,0.109,0.256,0.278,0.37,0.509l2.433,5.053v-5.652h0.858v5.864
	c0,0.309-0.063,0.549-0.188,0.723c-0.126,0.172-0.301,0.259-0.523,0.259c-0.177,0-0.335-0.056-0.475-0.167
	c-0.14-0.113-0.262-0.282-0.37-0.507l-2.443-5.087V44.482z"/>
<path d="M202.831,41.092c0,0.364,0.064,0.706,0.192,1.025c0.127,0.319,0.312,0.605,0.554,0.859c0.238,0.25,0.51,0.439,0.816,0.571
	c0.304,0.132,0.623,0.198,0.953,0.198c0.333,0,0.65-0.066,0.949-0.198c0.301-0.132,0.568-0.322,0.805-0.571
	c0.241-0.257,0.427-0.545,0.554-0.867c0.127-0.32,0.191-0.66,0.191-1.017c0-0.356-0.063-0.692-0.188-1.009
	c-0.125-0.319-0.312-0.605-0.557-0.864c-0.237-0.251-0.504-0.443-0.805-0.575c-0.299-0.132-0.616-0.198-0.949-0.198
	s-0.652,0.066-0.957,0.196c-0.304,0.13-0.575,0.319-0.811,0.568c-0.245,0.257-0.431,0.545-0.557,0.864
	C202.894,40.394,202.831,40.734,202.831,41.092 M201.917,41.101c0-0.472,0.085-0.917,0.257-1.336
	c0.171-0.42,0.423-0.798,0.756-1.135c0.323-0.33,0.692-0.581,1.105-0.755c0.414-0.172,0.85-0.259,1.308-0.259
	c0.452,0,0.887,0.088,1.302,0.264c0.414,0.175,0.785,0.43,1.112,0.76c0.327,0.333,0.576,0.71,0.747,1.128
	c0.172,0.42,0.257,0.864,0.257,1.333c0,0.471-0.087,0.919-0.259,1.342c-0.174,0.422-0.422,0.798-0.745,1.128
	c-0.327,0.333-0.698,0.589-1.112,0.764c-0.415,0.175-0.85,0.264-1.302,0.264c-0.459,0-0.895-0.087-1.308-0.262
	c-0.414-0.174-0.782-0.425-1.105-0.752c-0.333-0.34-0.586-0.719-0.756-1.141C202.002,42.023,201.917,41.575,201.917,41.101z"/>
<path d="M207.317,9.848h-2.046c-2.474,0-4.337,0.246-5.59,0.745c-1.245,0.492-2.244,1.34-3.005,2.529h10.64v8.127h-10.688
	c0.745,1.237,1.744,2.117,2.997,2.624c1.253,0.515,3.14,0.769,5.645,0.769h2.046v9.221h-0.88c-2.957,0-5.55-0.23-7.762-0.698
	c-2.212-0.46-4.075-1.165-5.574-2.109c-2.482-1.57-4.4-3.552-5.764-5.962c-1.364-2.41-2.046-5.035-2.046-7.881
	c0-2.839,0.674-5.455,2.03-7.858c1.356-2.394,3.282-4.377,5.78-5.947c1.499-0.928,3.362-1.625,5.574-2.101
	c2.212-0.468,4.805-0.706,7.762-0.706h0.88V9.848z M144.387,33.864L146.94,6.89c0.222-2.228,0.959-3.925,2.236-5.098
	c1.269-1.166,2.997-1.752,5.201-1.752c1.808,0,3.306,0.436,4.496,1.3c1.181,0.864,1.982,2.117,2.402,3.742l1.768,7.318
	c0.119,0.555,0.254,1.213,0.388,1.974c0.143,0.753,0.293,1.625,0.444,2.601c0.246-1.562,0.428-2.64,0.531-3.219
	c0.111-0.579,0.206-1.023,0.286-1.332l1.76-7.342c0.404-1.625,1.205-2.878,2.394-3.742c1.189-0.864,2.696-1.3,4.503-1.3
	c2.204,0,3.933,0.587,5.209,1.752c1.269,1.173,2.006,2.87,2.204,5.098l2.624,26.974h-10.268l-1.395-21.558
	c-0.087,0.864-0.206,1.697-0.333,2.49c-0.135,0.785-0.269,1.53-0.404,2.228l-3.164,13.36c-0.309,1.332-0.793,2.323-1.443,2.973
	c-0.65,0.65-1.483,0.975-2.505,0.975c-1.007,0-1.832-0.325-2.482-0.975c-0.65-0.65-1.142-1.641-1.467-2.973l-3.14-13.36
	c-0.119-0.5-0.254-1.15-0.389-1.966c-0.143-0.809-0.277-1.728-0.42-2.751l-1.372,21.558H144.387z M115.257,33.864V14.835
	c0-4.519,1.197-8.111,3.6-10.767c2.402-2.656,5.59-3.98,9.57-3.98c4.012,0,7.223,1.332,9.625,3.996
	c2.41,2.656,3.616,6.24,3.616,10.751v19.029h-10.426V23.382h-4.329v-8.69h4.329v-0.999c0-1.11-0.246-1.974-0.729-2.577
	c-0.492-0.603-1.181-0.904-2.085-0.904c-0.864,0-1.53,0.301-1.998,0.896c-0.468,0.595-0.698,1.459-0.698,2.585v20.171H115.257z
	 M85.365,33.816V13.312c0-4.059,1.158-7.286,3.465-9.697C91.138,1.205,94.214,0,98.075,0c3.576,0,6.589,1.015,9.031,3.045
	c2.45,2.03,3.671,4.511,3.671,7.461c0,1.403-0.317,2.64-0.951,3.703c-0.634,1.062-1.586,1.958-2.854,2.688
	c1.483,0.507,2.553,1.292,3.203,2.339c0.65,1.055,0.975,2.545,0.975,4.464v10.165h-10.363V25.11c0-1.063-0.23-1.8-0.682-2.204
	c-0.46-0.404-1.348-0.603-2.656-0.603h-0.468v-8.175h0.507c1.134,0,1.99-0.214,2.569-0.65c0.579-0.436,0.872-1.078,0.872-1.927
	c0-0.714-0.246-1.316-0.729-1.792c-0.492-0.484-1.094-0.722-1.808-0.722c-0.912,0-1.562,0.301-1.958,0.904
	c-0.397,0.611-0.595,1.625-0.595,3.045v20.829H85.365z M62.578,33.864V12.401c0-4.012,0.999-6.977,2.997-8.904
	c1.998-1.927,5.082-2.894,9.269-2.894h7.057v9.293h-5.574c-1.102,0-1.919,0.27-2.458,0.801c-0.547,0.531-0.817,1.34-0.817,2.426
	v0.674h8.849v8.896h-8.849v11.172H62.578z"/>
<path d="M8.643,42.252c0-0.037,0.002-0.09,0.007-0.161c0.005-0.074,0.007-0.124,0.007-0.157c0-1.199-0.338-2.163-1.015-2.89
	c-0.677-0.725-1.567-1.088-2.672-1.088c-1.13,0-2.025,0.37-2.69,1.111c-0.665,0.743-0.999,1.746-0.999,3.014
	c0,0.069,0.002,0.145,0.007,0.23c0.005,0.085,0.012,0.212,0.021,0.377l8.507,0.007v1.268H0.163v-1.659
	c0-0.741,0.055-1.378,0.168-1.91c0.113-0.534,0.283-0.992,0.513-1.374c0.467-0.778,1.054-1.367,1.758-1.772
	c0.706-0.405,1.5-0.608,2.382-0.608c0.879,0,1.682,0.212,2.405,0.637c0.725,0.426,1.318,1.028,1.781,1.811
	c0.212,0.359,0.371,0.796,0.481,1.314c0.111,0.518,0.166,1.098,0.166,1.74v0.108H8.643z"/>
<path d="M1.309,29.748c-0.005,0.053-0.009,0.11-0.012,0.168c-0.002,0.06-0.002,0.145-0.002,0.258c0,1.194,0.249,2.14,0.746,2.837
	c0.497,0.697,1.238,1.146,2.227,1.348v-4.611h1.146v4.678c1.07-0.161,1.878-0.596,2.423-1.3c0.545-0.707,0.819-1.673,0.819-2.899
	c0-0.131,0-0.23-0.002-0.297c-0.002-0.067-0.007-0.129-0.012-0.182h1.174v0.37c0,0.716-0.055,1.344-0.168,1.887
	c-0.113,0.545-0.281,1.001-0.506,1.369c-0.472,0.773-1.061,1.362-1.769,1.765c-0.709,0.405-1.505,0.608-2.388,0.608
	c-0.881,0-1.675-0.203-2.382-0.608c-0.704-0.403-1.291-0.992-1.758-1.765c-0.225-0.368-0.393-0.824-0.509-1.369
	c-0.115-0.543-0.173-1.171-0.173-1.887v-0.37H1.309z"/>
<path d="M9.816,28.708H8.534v-3.297c0-0.525-0.103-0.925-0.311-1.197c-0.207-0.271-0.509-0.407-0.909-0.407
	c-0.311,0-0.58,0.103-0.812,0.313c-0.232,0.209-0.492,0.601-0.785,1.176l-0.828,1.62c-0.301,0.591-0.649,1.033-1.042,1.321
	c-0.393,0.288-0.842,0.43-1.344,0.43c-0.725,0-1.296-0.262-1.714-0.789c-0.417-0.525-0.626-1.247-0.626-2.163v-2.791h1.275v3.217
	c0,0.368,0.094,0.661,0.281,0.879c0.186,0.219,0.43,0.327,0.736,0.327c0.278,0,0.52-0.097,0.725-0.288
	c0.205-0.191,0.493-0.646,0.865-1.371l0.716-1.408c0.315-0.614,0.674-1.07,1.079-1.365c0.403-0.295,0.872-0.442,1.408-0.442
	c0.812,0,1.445,0.278,1.894,0.833c0.449,0.555,0.674,1.339,0.674,2.356V28.708z"/>
<rect x="0.163" y="19.736" width="9.653" height="1.288"/>
<path d="M4.307,13.227V8.595h0.329c0.532,0,1.019,0.048,1.463,0.143c0.446,0.094,0.858,0.235,1.24,0.423
	c0.833,0.428,1.482,1.019,1.947,1.776c0.465,0.757,0.697,1.602,0.697,2.531c0,0.651-0.127,1.275-0.377,1.868
	c-0.251,0.591-0.617,1.121-1.093,1.583c-0.476,0.472-1.017,0.831-1.62,1.079c-0.605,0.246-1.243,0.37-1.912,0.37
	c-0.67,0-1.307-0.124-1.91-0.37c-0.605-0.249-1.146-0.608-1.622-1.079c-0.472-0.463-0.831-0.999-1.079-1.611
	C0.124,14.697,0,14.039,0,13.335c0-0.725,0.143-1.399,0.426-2.023c0.283-0.624,0.72-1.229,1.314-1.813l0.87,0.856
	c-0.49,0.481-0.851,0.966-1.086,1.459c-0.233,0.492-0.35,1.012-0.35,1.56c0,0.366,0.046,0.711,0.136,1.035
	c0.09,0.327,0.223,0.626,0.403,0.9c0.357,0.557,0.817,0.989,1.385,1.295c0.571,0.306,1.194,0.458,1.873,0.458
	c0.511,0,0.996-0.092,1.454-0.274c0.46-0.182,0.872-0.446,1.24-0.792c0.352-0.331,0.621-0.718,0.812-1.155
	c0.191-0.439,0.288-0.897,0.288-1.374c0-0.925-0.295-1.707-0.884-2.349c-0.589-0.64-1.376-1.024-2.361-1.155v3.263H4.307z"/>
<path d="M9.816,6.045v1.213H1.463c-0.453,0-0.801-0.092-1.045-0.274C0.177,6.802,0.055,6.545,0.055,6.206
	c0-0.237,0.078-0.453,0.237-0.644C0.449,5.371,0.69,5.196,1.019,5.033l7.225-3.479H0.163V0.327h8.385
	c0.442,0,0.785,0.09,1.033,0.269c0.246,0.18,0.37,0.43,0.37,0.748c0,0.253-0.08,0.479-0.239,0.679
	c-0.161,0.2-0.403,0.375-0.725,0.529L1.714,6.045H9.816z"/>
<path style="fill-rule:evenodd;clip-rule:evenodd;" d="M52.565,1.166c3.876,0,7.02,3.143,7.02,7.02c0,3.876-3.144,7.02-7.02,7.02
	c-3.876,0-7.02-3.144-7.02-7.02C45.545,4.31,48.688,1.166,52.565,1.166"/>
<g>
	<defs>
		<path id="SVGID_1_" d="M52.565,1.166c3.876,0,7.02,3.143,7.02,7.02c0,3.876-3.144,7.02-7.02,7.02c-3.876,0-7.02-3.144-7.02-7.02
			C45.545,4.31,48.688,1.166,52.565,1.166"/>
	</defs>
	<clipPath id="SVGID_2_">
		<use xlink:href="#SVGID_1_"  style="overflow:visible;"/>
	</clipPath>

		<rect x="45.39" y="-0.394" style="clip-path:url(#SVGID_2_);fill-rule:evenodd;clip-rule:evenodd;fill:#00A551;" width="4.783" height="17.16"/>

		<rect x="50.173" y="-0.394" style="clip-path:url(#SVGID_2_);fill-rule:evenodd;clip-rule:evenodd;fill:#FFFFFF;" width="4.783" height="17.16"/>

		<rect x="54.956" y="-0.394" style="clip-path:url(#SVGID_2_);fill-rule:evenodd;clip-rule:evenodd;fill:#EC1C24;" width="4.783" height="17.16"/>
</g>
<path d="M56.106,0.315h3.339V2.98C58.578,1.835,57.431,0.913,56.106,0.315 M45.685,2.978V0.315h3.338
	C47.699,0.912,46.553,1.834,45.685,2.978z M45.685,44.014v-30.62c1.576,2.078,4.071,3.421,6.88,3.421
	c2.809,0,5.305-1.344,6.881-3.423v30.622H45.685z M9.434,44.014V0.315h2.75v19.563H26.04V0.315h12.353v43.699H26.04V22.316H12.185
	v21.698H9.434z"/>
</svg>
