
<svg version="1.1" id="Layer_1" xmlns="http://www.w3.org/2000/svg" xmlns:xlink="http://www.w3.org/1999/xlink" x="0px" y="0px"
	 viewBox="0 0 24 24" style="enable-background:new 0 0 24 24;" xml:space="preserve">
<path style="fill:#12B261;" d="M12,0C5.373,0,0,5.373,0,12s5.373,12,12,12c6.628,0,12-5.373,12-12S18.628,0,12,0z M15.172,19.297
	c-1.021-0.077-7.678-1.676-10.481-9.594c-0.568-1.66,0.134-4.338,2.033-4.936c1.927-0.623,2.913,2.07,3.194,3.772l-1.681,1.679
	c0,0-0.047,1.05,2.253,3.35c2.298,2.299,3.349,2.252,3.349,2.252l1.953-1.951c1.234,0.26,3.708,1.832,3.708,1.832
	C19.193,18.022,17.619,19.555,15.172,19.297z"/>
</svg>
