<?xml version="1.0" encoding="utf-8"?>
<!-- Generated by IcoMoon.io -->
<!DOCTYPE svg PUBLIC "-//W3C//DTD SVG 1.1//EN" "http://www.w3.org/Graphics/SVG/1.1/DTD/svg11.dtd">
<svg version="1.1" xmlns="http://www.w3.org/2000/svg" xmlns:xlink="http://www.w3.org/1999/xlink" width="32" height="32" viewBox="0 0 32 32">
<path fill="#444444" d="M16 2.421c-7.5 0-13.579 6.080-13.579 13.579s6.079 13.579 13.579 13.579c7.5 0 13.579-6.080 13.579-13.579s-6.080-13.579-13.579-13.579zM19.612 15.775h-2.294c0 3.667 0 8.181 0 8.181h-3.401c0 0 0-4.471 0-8.181h-1.616v-2.89h1.616v-1.871c0-1.339 0.636-3.432 3.432-3.432l2.518 0.011v2.804c0 0-1.531 0-1.828 0-0.299 0-0.721 0.149-0.721 0.787v1.701h2.591l-0.297 2.89z"></path>
</svg>
