<?xml version="1.0" encoding="utf-8"?>
<!-- Generated by IcoMoon.io -->
<!DOCTYPE svg PUBLIC "-//W3C//DTD SVG 1.1//EN" "http://www.w3.org/Graphics/SVG/1.1/DTD/svg11.dtd">
<svg version="1.1" xmlns="http://www.w3.org/2000/svg" xmlns:xlink="http://www.w3.org/1999/xlink" width="32" height="32" viewBox="0 0 32 32">
<path fill="#444444" d="M16 0.032c-8.832 0-15.968 7.136-15.968 15.968s7.168 15.968 15.968 15.968c8.832 0 15.968-7.168 15.968-15.968 0-8.832-7.136-15.968-15.968-15.968zM20.256 15.744h-2.688c0 4.32 0 9.632 0 9.632h-4.032c0 0 0-5.248 0-9.632h-1.888v-3.424h1.888v-2.208c0-1.568 0.736-4.032 4.032-4.032h2.976v3.296c0 0-1.792 0-2.144 0s-0.864 0.16-0.864 0.928v2.016h3.040l-0.32 3.424z"></path>
</svg>
