
<svg version="1.1" xmlns="http://www.w3.org/2000/svg" xmlns:xlink="http://www.w3.org/1999/xlink" width="32" height="32" viewBox="0 0 32 32">
<path fill="#444444" d="M16 2.421c-7.5 0-13.579 6.080-13.579 13.579 0 2.532 0.695 4.901 1.901 6.93 1.039-1.252 2.903-2.166 5.102-2.166 0.368 0 0.706-0.015 1.056-0.015-0.463-0.45-0.829-1.012-0.829-1.692 0-0.404 0.129-0.812 0.309-1.157-0.184 0.013-0.372-0.023-0.564-0.023-2.777 0-4.638-2.057-4.638-4.505 0-2.396 2.569-4.625 5.299-4.625 1.522 0 6.090 0 6.090 0l-1.363 1.28h-1.931c1.281 0.32 1.963 1.999 1.963 3.531 0 1.287-0.713 2.407-1.72 3.194-0.982 0.768-1.169 1.089-1.169 1.742 0 0.557 1.052 1.504 1.603 1.894 1.609 1.138 2.129 2.193 2.129 3.957 0 1.928-1.637 3.846-4.638 4.29 1.542 0.608 3.221 0.946 4.979 0.946 7.5 0 13.579-6.079 13.579-13.58s-6.080-13.579-13.579-13.579zM23.197 14.265v3.806h-1.91v-3.806h-3.806v-1.91h3.806v-3.806h1.91v3.806h3.806v1.91h-3.806zM12.627 13.69c-0.271-2.060-1.763-3.713-3.331-3.76s-2.62 1.53-2.35 3.59c0.271 2.060 1.762 3.768 3.331 3.815 1.568 0.047 2.62-1.585 2.35-3.645zM14.093 24.592c0-0.214-0.026-0.424-0.075-0.628-0.257-1.005-1.167-1.504-2.436-2.387-0.461-0.149-0.97-0.237-1.515-0.243-2.337-0.025-4.431 1.425-4.431 3.167 0 0.097 0.007 0.194 0.017 0.289 0.994 1.168 2.181 2.165 3.514 2.943 0.162 0.015 0.326 0.025 0.494 0.025 3.286 0 4.431-1.388 4.431-3.166z"></path>
</svg>
