<?xml version="1.0" encoding="utf-8"?>
<!-- Generated by IcoMoon.io -->
<!DOCTYPE svg PUBLIC "-//W3C//DTD SVG 1.1//EN" "http://www.w3.org/Graphics/SVG/1.1/DTD/svg11.dtd">
<svg version="1.1" xmlns="http://www.w3.org/2000/svg" xmlns:xlink="http://www.w3.org/1999/xlink" width="32" height="32" viewBox="0 0 32 32">
<path fill="#444444" d="M12.032 13.28c-0.32-2.432-2.080-4.384-3.936-4.416-1.856-0.064-3.072 1.792-2.784 4.224 0.32 2.432 2.080 4.448 3.936 4.48 1.856 0.064 3.104-1.856 2.784-4.288z"></path>
<path fill="#444444" d="M13.76 26.112c0-0.256-0.032-0.512-0.096-0.736-0.288-1.184-1.376-1.76-2.88-2.816-0.544-0.16-1.152-0.288-1.792-0.288-2.752-0.032-5.216 1.664-5.216 3.744 0 0.128 0 0.224 0.032 0.352 1.184 1.376 2.56 2.56 4.128 3.456 0.192 0.032 0.384 0.032 0.576 0.032 3.904 0 5.248-1.632 5.248-3.744z"></path>
<path fill="#444444" d="M16 0c-8.832 0-16 7.168-16 16 0 2.976 0.832 5.76 2.24 8.16 1.216-1.472 3.424-2.56 6.016-2.56 0.448 0 0.832-0.032 1.248-0.032-0.544-0.544-0.992-1.184-0.992-1.984 0-0.48 0.16-0.96 0.352-1.376-0.224 0-0.448-0.032-0.672-0.032-3.264 0-5.472-2.432-5.472-5.312 0-2.816 3.040-5.44 6.24-5.44 1.792 0 7.168 0 7.168 0l-1.6 1.504h-2.272c1.504 0.384 2.304 2.368 2.304 4.16 0 1.504-0.832 2.848-2.016 3.776-1.152 0.896-1.376 1.28-1.376 2.048 0 0.672 1.248 1.76 1.888 2.24 1.888 1.344 2.496 2.592 2.496 4.672 0 2.272-1.92 4.544-5.472 5.056 1.824 0.704 3.808 1.12 5.856 1.12 8.832 0 16-7.168 16-16 0.064-8.832-7.104-16-15.936-16zM24.48 13.952v4.48h-2.24v-4.48h-4.48v-2.24h4.48v-4.48h2.24v4.48h4.48v2.24h-4.48z"></path>
</svg>
