<?xml version="1.0" encoding="utf-8"?>
<!-- Generated by IcoMoon.io -->
<!DOCTYPE svg PUBLIC "-//W3C//DTD SVG 1.1//EN" "http://www.w3.org/Graphics/SVG/1.1/DTD/svg11.dtd">
<svg version="1.1" xmlns="http://www.w3.org/2000/svg" xmlns:xlink="http://www.w3.org/1999/xlink" width="32" height="32" viewBox="0 0 32 32">
<path fill="#444444" d="M16 0.032c-8.832 0-15.968 7.136-15.968 15.968s7.136 15.968 15.968 15.968c8.832 0 15.968-7.168 15.968-15.968 0-8.832-7.136-15.968-15.968-15.968zM11.808 21.472c0 0.096-0.096 0.192-0.192 0.192h-2.944c-0.096 0-0.192-0.096-0.192-0.192v-9.6c0-0.096 0.096-0.192 0.192-0.192h2.944c0.096 0 0.192 0.096 0.192 0.192v9.6zM10.144 10.656c-0.928 0-1.664-0.736-1.664-1.664s0.736-1.664 1.664-1.664c0.928 0 1.664 0.736 1.664 1.664s-0.736 1.664-1.664 1.664zM23.36 14.688v6.752c0 0.096-0.096 0.192-0.192 0.192h-2.944c-0.096 0-0.192-0.096-0.192-0.192v-5.376c0-1.056-0.096-1.888-1.504-1.888-1.024 0-1.568 0.864-1.568 1.44v5.856c0 0.096-0.096 0.192-0.192 0.192h-2.944c-0.096 0-0.192-0.096-0.192-0.192v-9.6c0-0.096 0.096-0.192 0.192-0.192h2.944c0.096 0 0.192 0.096 0.192 0.192v0.928c0.512-0.576 1.504-1.248 2.944-1.248 2.368 0 3.232 1.728 3.456 2.528-0.032-0.032 0-0.032 0 0.608z"></path>
</svg>
