
<svg version="1.1" xmlns="http://www.w3.org/2000/svg" xmlns:xlink="http://www.w3.org/1999/xlink" width="32" height="32" viewBox="0 0 32 32">
<path fill="#444444" d="M16 2.42c-7.5 0-13.579 6.080-13.579 13.58s6.079 13.58 13.579 13.58c7.5 0 13.58-6.080 13.58-13.58s-6.080-13.58-13.579-13.58zM12.441 20.643c0 0.089-0.073 0.161-0.162 0.161h-2.501c-0.089 0-0.162-0.072-0.162-0.161v-8.149c0-0.089 0.072-0.162 0.162-0.162h2.501c0.089 0 0.162 0.073 0.162 0.162v8.149zM11.029 11.444c-0.78 0-1.412-0.632-1.412-1.412s0.632-1.412 1.412-1.412c0.78 0 1.412 0.632 1.412 1.412s-0.633 1.412-1.412 1.412zM22.245 14.896v5.748c0 0.089-0.072 0.161-0.161 0.161h-2.501c-0.089 0-0.161-0.072-0.161-0.161v-4.599c0-0.888-0.081-1.613-1.291-1.613-0.868 0-1.324 0.726-1.332 1.236v4.976c0 0.089-0.072 0.161-0.161 0.161h-2.501c-0.089 0-0.161-0.072-0.161-0.161v-8.149c0-0.089 0.072-0.162 0.161-0.162h2.501c0.089 0 0.161 0.073 0.161 0.162v0.787c0.445-0.481 1.286-1.069 2.502-1.069 2.026 0 2.756 1.456 2.938 2.138-0 0 0.010-0.006 0.007 0.547z"></path>
</svg>
