<?xml version="1.0" encoding="utf-8"?>
<!-- Generated by IcoMoon.io -->
<!DOCTYPE svg PUBLIC "-//W3C//DTD SVG 1.1//EN" "http://www.w3.org/Graphics/SVG/1.1/DTD/svg11.dtd">
<svg version="1.1" xmlns="http://www.w3.org/2000/svg" xmlns:xlink="http://www.w3.org/1999/xlink" width="32" height="32" viewBox="0 0 32 32">
<path fill="#444444" d="M32 16c0 8.832-7.168 16-16 16s-16-7.168-16-16c0-8.832 7.168-16 16-16s16 7.168 16 16zM27.328 8.96c-0.832 0.384-1.728 0.608-2.656 0.736 0.96-0.576 1.696-1.472 2.048-2.56-0.896 0.544-1.888 0.928-2.944 1.12-0.832-0.896-2.048-1.472-3.392-1.472-2.56 0-4.64 2.080-4.64 4.64 0 0.352 0.032 0.704 0.128 1.056-3.872-0.192-7.296-2.048-9.6-4.864-0.416 0.672-0.64 1.472-0.64 2.336 0 1.6 0.832 3.040 2.080 3.872-0.768-0.032-1.472-0.224-2.112-0.576v0.064c0 2.24 1.6 4.128 3.744 4.576-0.384 0.096-0.8 0.16-1.216 0.16-0.288 0-0.576-0.032-0.864-0.096 0.608 1.856 2.304 3.2 4.352 3.232-1.6 1.248-3.584 1.984-5.792 1.984-0.384 0-0.736-0.032-1.12-0.064 2.048 1.312 4.512 2.080 7.136 2.080 8.544 0 13.248-7.072 13.248-13.248v-0.608c0.832-0.608 1.632-1.44 2.24-2.368z"></path>
</svg>
