
<svg version="1.1" xmlns="http://www.w3.org/2000/svg" xmlns:xlink="http://www.w3.org/1999/xlink" width="32" height="32" viewBox="0 0 32 32">
<path fill="#444444" d="M29.6 16c0 7.511-6.089 13.6-13.6 13.6s-13.6-6.089-13.6-13.6c0-7.511 6.089-13.6 13.6-13.6s13.6 6.089 13.6 13.6zM25.635 10.025c-0.709 0.314-1.47 0.527-2.27 0.623 0.816-0.489 1.442-1.264 1.738-2.186-0.765 0.453-1.611 0.781-2.512 0.96-0.72-0.77-1.747-1.249-2.884-1.249-2.183 0-3.954 1.77-3.954 3.952 0 0.309 0.035 0.612 0.102 0.901-3.285-0.165-6.198-1.739-8.148-4.131-0.341 0.583-0.535 1.262-0.535 1.987 0 1.372 0.699 2.582 1.758 3.29-0.648-0.022-1.257-0.2-1.791-0.496v0.049c0 1.915 1.363 3.513 3.171 3.876-0.331 0.089-0.68 0.139-1.042 0.139-0.255 0-0.502-0.025-0.744-0.072 0.503 1.57 1.963 2.713 3.692 2.746-1.352 1.060-3.058 1.691-4.91 1.691-0.319 0-0.633-0.019-0.943-0.054 1.75 1.122 3.827 1.777 6.060 1.777 7.271 0 11.247-6.024 11.247-11.247l-0.013-0.512c0.776-0.556 1.448-1.252 1.977-2.044z"></path>
</svg>
